<?xml version="1.0" ?><svg data-name="Layer 1" id="Layer_1" viewBox="0 0 512 512" xmlns="http://www.w3.org/2000/svg"><path d="M369.18,218.86a27,27,0,0,0-44-20.91,26.93,26.93,0,0,0-45.57-15.67,27,27,0,0,0-39.91-12V102.53a27,27,0,1,0-54,0V223c-.38-.4-.72-.83-1.12-1.22-14.3-14.12-34.81-14-35.87-14a6,6,0,0,0-5.91,6v124c0,51.59,37.15,68.86,50.59,73.42v19.27a6,6,0,1,0,12,0V406.71a6,6,0,0,0-4.76-5.86c-1.87-.4-45.83-10.35-45.83-63.08V220.34c5.83.94,14.78,3.42,21.45,10,6.27,6.22,9.44,15.06,9.44,26.27l0,.08v39.19a1.92,1.92,0,0,0,0,.22c0,3.36,2.69,5.1,6.13,6,7.24,1.25,53,10.65,53,47.22a6,6,0,1,0,12,0c0-37-36.12-53.68-59.1-58.36V257.13a2,2,0,0,0,0-.24V102.53a15,15,0,1,1,30,0v155a27,27,0,0,0,45.84,19.28,26.95,26.95,0,0,0,41.93,10.52,26.93,26.93,0,0,0,41.4,19v53.05c0,35.63-17.22,38.82-17.84,38.92a6,6,0,0,0-5.28,5.95v26.2a6,6,0,1,0,12,0V408.65c8.22-3.5,23.12-14.61,23.12-49.26V287.71a27.53,27.53,0,0,0,.33-4Zm-99.49,38.66a15,15,0,1,1-30,0V192.67a15,15,0,1,1,30,0Zm43.76,8.89a15,15,0,1,1-30,0V201.55a15,15,0,1,1,30,0Zm28.75,32.32a15,15,0,0,1-15-15V218.86a15,15,0,0,1,30,0v50.38a5.79,5.79,0,0,0-.33,1.87v15.72A15,15,0,0,1,342.2,298.73Z"/></svg>