<?xml version="1.0" standalone="no"?>
<!DOCTYPE svg PUBLIC "-//W3C//DTD SVG 20010904//EN"
 "http://www.w3.org/TR/2001/REC-SVG-20010904/DTD/svg10.dtd">
<svg version="1.0" xmlns="http://www.w3.org/2000/svg"
 width="143.000000pt" height="138.000000pt" viewBox="0 0 143.000000 138.000000"
 preserveAspectRatio="xMidYMid meet">

<g transform="translate(0.000000,138.000000) scale(0.100000,-0.100000)"
fill="#000000" stroke="none">
<path d="M388 1222 l-298 -85 0 -104 c0 -95 2 -104 18 -99 9 2 146 30 305 61
l287 56 283 -56 c155 -31 292 -59 305 -62 22 -5 22 -4 22 100 l0 104 -303 87
c-166 47 -307 86 -312 85 -6 -1 -144 -40 -307 -87z"/>
<path d="M585 895 c-33 -7 -158 -30 -277 -51 l-218 -39 0 -32 c0 -18 5 -33 10
-33 6 0 10 -25 10 -55 0 -30 -4 -55 -10 -55 -6 0 -10 -86 -10 -239 l0 -238 38
-6 c20 -4 158 -20 306 -37 l269 -30 281 30 c155 17 291 33 304 35 l22 5 0 240
c0 153 -4 240 -10 240 -5 0 -10 25 -10 55 0 30 5 55 10 55 6 0 10 15 10 33 l0
32 -298 53 c-314 56 -332 57 -427 37z m153 -61 c20 -6 22 -13 22 -65 l0 -59
-60 0 -60 0 0 59 c0 48 3 60 18 64 26 7 55 7 80 1z m-127 -41 c10 -28 4 -79
-12 -88 -16 -10 -32 41 -25 79 8 43 23 46 37 9z m213 -11 c12 -43 -7 -90 -29
-72 -16 13 -19 49 -9 88 9 31 27 23 38 -16z m139 14 l37 -7 0 -60 c0 -53 -2
-60 -17 -55 -10 2 -44 7 -75 11 l-58 6 0 64 0 63 38 -8 c20 -4 54 -11 75 -14z
m-413 -45 l0 -60 -47 -6 c-27 -3 -60 -9 -75 -11 l-28 -6 0 60 0 60 53 10 c100
18 97 20 97 -47z m-242 -87 c-2 -2 -30 -6 -61 -10 l-57 -7 0 55 0 56 58 8 57
9 3 -54 c2 -29 1 -55 0 -57z m66 81 c8 -43 0 -75 -19 -75 -19 0 -28 35 -20 76
8 44 31 44 39 -1z m685 5 c11 -33 0 -80 -19 -80 -19 0 -30 47 -17 79 14 39 22
39 36 1z m144 1 c5 -5 7 -30 5 -57 -3 -54 -2 -53 -85 -39 -33 6 -33 7 -33 62
l0 56 53 -7 c28 -4 56 -11 60 -15z m-1037 -28 c12 -34 3 -78 -16 -78 -18 0
-24 26 -15 71 7 41 17 43 31 7z m1098 5 c10 -39 7 -75 -9 -88 -23 -19 -39 32
-23 76 14 40 23 43 32 12z"/>
</g>
</svg>
