<?xml version="1.0" standalone="no"?>
<!DOCTYPE svg PUBLIC "-//W3C//DTD SVG 20010904//EN"
 "http://www.w3.org/TR/2001/REC-SVG-20010904/DTD/svg10.dtd">
<svg version="1.0" xmlns="http://www.w3.org/2000/svg"
 width="139.000000pt" height="161.000000pt" viewBox="0 0 139.000000 161.000000"
 preserveAspectRatio="xMidYMid meet">

<g transform="translate(0.000000,161.000000) scale(0.100000,-0.100000)"
fill="#000000" stroke="none">
<path d="M217 1570 c-3 -8 -8 -39 -11 -68 -3 -29 -12 -62 -21 -74 -9 -14 -15
-44 -15 -80 0 -51 -2 -58 -20 -58 -11 0 -20 -6 -20 -12 0 -10 26 -13 95 -13
69 0 95 3 95 13 0 6 -11 12 -25 12 -24 0 -25 3 -25 62 0 40 -5 67 -15 78 -8 9
-19 47 -23 86 -5 38 -11 62 -15 54z"/>
<path d="M140 1237 c0 -17 162 -15 168 2 2 7 -24 11 -82 11 -64 0 -86 -3 -86
-13z"/>
<path d="M163 1203 c-9 -3 -13 -32 -13 -94 0 -82 -1 -89 -20 -89 -13 0 -20 -7
-20 -18 0 -16 5 -17 60 -8 41 7 77 7 110 0 41 -9 50 -8 50 4 0 7 -9 16 -20 19
-18 5 -20 14 -20 99 l0 94 -57 -1 c-32 0 -64 -3 -70 -6z"/>
<path d="M142 973 c-13 -3 -21 -10 -19 -16 5 -18 194 -19 201 -2 8 21 -106 32
-182 18z"/>
<path d="M790 937 c0 -24 -5 -48 -11 -54 -8 -8 -8 -13 1 -18 25 -16 35 3 32
59 -4 65 -22 76 -22 13z"/>
<path d="M163 923 c-22 -4 -23 -8 -23 -129 l0 -124 -30 0 c-27 0 -30 -3 -30
-30 l0 -30 145 0 145 0 0 30 c0 28 -3 30 -35 30 l-35 0 0 124 0 124 -31 6
c-33 6 -69 6 -106 -1z"/>
<path d="M687 818 c-73 -40 -175 -133 -217 -198 -38 -59 -60 -140 -60 -222 l0
-58 386 0 386 0 -4 98 c-4 82 -9 106 -32 152 -36 69 -142 173 -225 222 -85 49
-150 51 -234 6z"/>
<path d="M100 570 c10 -18 21 -20 123 -20 101 0 113 2 125 20 12 20 10 20
-123 20 -133 0 -135 0 -125 -20z"/>
<path d="M110 504 c0 -21 3 -24 20 -19 12 4 28 1 36 -6 12 -9 20 -9 39 1 19
10 27 10 39 1 11 -9 20 -10 36 -1 12 6 28 9 36 6 10 -4 14 2 14 19 l0 25 -110
0 -110 0 0 -26z"/>
<path d="M123 463 c-7 -2 -13 -16 -13 -30 0 -19 4 -24 15 -19 9 3 25 0 35 -7
16 -9 24 -9 41 1 16 10 24 11 35 1 11 -9 20 -9 40 0 20 9 30 9 40 0 11 -9 14
-6 14 20 0 36 -19 48 -49 31 -15 -8 -27 -8 -42 0 -15 9 -24 8 -35 -1 -11 -9
-21 -9 -40 0 -14 6 -26 11 -27 10 -1 0 -8 -3 -14 -6z"/>
<path d="M123 393 c-7 -2 -13 -18 -13 -35 0 -23 3 -28 13 -20 8 7 19 6 37 -3
20 -11 28 -10 46 1 18 13 23 12 34 -1 9 -11 17 -12 32 -4 11 6 29 9 39 6 15
-4 19 0 19 18 0 34 -23 49 -49 33 -17 -10 -25 -10 -42 0 -18 11 -24 11 -38 -2
-15 -14 -20 -14 -37 -1 -21 16 -23 16 -41 8z"/>
<path d="M117 313 c-4 -3 -7 -17 -7 -30 0 -20 4 -23 20 -18 12 4 27 2 34 -4
10 -9 21 -8 40 0 20 9 29 9 40 0 11 -9 20 -10 36 -1 12 6 28 9 36 6 10 -4 14
2 14 20 0 29 -25 42 -51 25 -15 -8 -24 -8 -39 1 -16 10 -24 10 -41 0 -15 -10
-24 -11 -32 -3 -12 12 -40 15 -50 4z"/>
<path d="M397 313 c-4 -3 -7 -26 -7 -50 l0 -43 40 0 c38 0 40 2 40 30 0 38 31
58 54 34 9 -8 16 -26 16 -40 0 -21 5 -24 35 -24 32 0 35 2 35 30 0 38 31 58
54 34 9 -8 16 -26 16 -40 0 -21 5 -24 35 -24 30 0 35 3 35 24 0 21 22 56 35
56 13 0 35 -35 35 -56 0 -21 5 -24 35 -24 30 0 35 3 35 24 0 14 7 32 16 40 23
24 54 4 54 -34 0 -28 3 -30 35 -30 30 0 35 3 35 24 0 14 7 32 16 40 23 24 54
4 54 -34 0 -30 1 -30 55 -30 l55 0 0 34 c0 71 30 66 -409 66 -219 0 -401 -3
-404 -7z"/>
<path d="M123 243 c-7 -2 -13 -16 -13 -30 0 -19 4 -23 18 -19 10 4 27 0 38 -8
16 -13 21 -13 35 0 13 12 21 12 42 3 20 -9 30 -9 40 0 8 6 22 9 31 5 12 -5 16
0 16 20 0 31 -20 42 -49 26 -15 -7 -27 -8 -41 0 -14 8 -25 7 -40 -2 -15 -10
-22 -10 -32 0 -12 12 -24 14 -45 5z"/>
<path d="M362 188 c-7 -7 -12 -29 -12 -50 0 -21 -4 -38 -10 -38 -5 0 -10 15
-10 34 0 39 -20 52 -50 33 -16 -9 -24 -9 -39 0 -15 9 -23 9 -37 -1 -15 -12
-22 -11 -40 0 -32 21 -54 8 -54 -32 l0 -34 -49 0 c-54 0 -76 -21 -41 -40 12
-6 245 -10 658 -10 548 0 641 2 652 15 18 22 3 35 -41 35 -39 0 -39 0 -39 40
0 29 -5 42 -19 50 -30 15 -853 14 -869 -2z m92 -24 c10 -4 16 -18 16 -35 0
-26 -4 -29 -30 -29 -26 0 -30 4 -30 28 0 40 11 49 44 36z m156 -13 c19 -37 12
-51 -25 -51 -30 0 -35 3 -35 23 0 44 41 63 60 28z m138 7 c7 -7 12 -22 12 -35
0 -20 -5 -23 -35 -23 -37 0 -44 14 -25 51 12 22 30 25 48 7z m150 -26 c3 -30
1 -32 -27 -32 -26 0 -31 4 -31 23 0 54 53 62 58 9z m140 26 c7 -7 12 -22 12
-35 0 -20 -5 -23 -35 -23 -30 0 -35 3 -35 23 0 24 17 47 35 47 6 0 16 -5 23
-12z m136 6 c10 -4 16 -18 16 -35 0 -26 -4 -29 -30 -29 -26 0 -30 3 -30 29 0
16 6 32 13 34 6 3 13 6 14 6 1 1 8 -2 17 -5z"/>
</g>
</svg>
