<?xml version="1.0" standalone="no"?>
<!DOCTYPE svg PUBLIC "-//W3C//DTD SVG 20010904//EN"
 "http://www.w3.org/TR/2001/REC-SVG-20010904/DTD/svg10.dtd">
<svg version="1.0" xmlns="http://www.w3.org/2000/svg"
 width="347.000000pt" height="352.000000pt" viewBox="0 0 347.000000 352.000000"
 preserveAspectRatio="xMidYMid meet">

<g transform="translate(0.000000,352.000000) scale(0.100000,-0.100000)"
fill="#000000" stroke="none">
<path d="M1485 3150 l-230 -230 -325 0 c-240 0 -329 -3 -338 -12 -9 -9 -12
-98 -12 -338 l0 -325 -230 -230 c-126 -126 -230 -237 -230 -245 0 -8 104 -119
230 -245 l230 -230 0 -325 c0 -240 3 -329 12 -338 9 -9 98 -12 338 -12 l325 0
230 -230 c148 -148 237 -230 250 -230 13 0 102 82 250 230 l230 230 325 0
c240 0 329 3 338 12 9 9 12 98 12 338 l0 325 230 230 c127 126 230 237 230
245 0 8 -103 119 -230 245 l-230 230 0 325 c0 240 -3 329 -12 338 -9 9 -98 12
-338 12 l-325 0 -230 230 c-148 148 -237 230 -250 230 -13 0 -102 -82 -250
-230z m883 -480 l262 0 0 -262 0 -262 187 -188 188 -188 -183 -183 -182 -182
0 -268 0 -267 -267 0 -267 0 -185 -185 -186 -184 -186 184 -185 185 -267 0
-267 0 0 267 0 268 -182 182 -183 183 183 183 182 182 0 268 0 267 267 0 267
0 185 185 186 185 185 -185 185 -185 263 0z"/>
</g>
</svg>
